<svg width="146" height="143" viewBox="0 0 146 143" fill="none" xmlns="http://www.w3.org/2000/svg">
<path d="M118.705 26.8883L77.1942 3.16299C69.8435 -1.05433 60.7562 -1.05433 53.4055 3.16299L11.8943 26.8883C4.54363 31.1056 0 38.8806 0 47.2916V94.7659C0 103.177 4.54363 110.952 11.8943 115.169L53.4055 138.918C60.7562 143.135 69.8435 143.135 77.1942 138.918L118.705 115.169C126.056 110.952 130.6 103.177 130.6 94.7659V47.2916C130.6 38.8806 126.08 31.1056 118.705 26.8883ZM98.2472 75.7526L85.9009 96.9334C84.2119 99.8549 81.0718 101.646 77.67 101.646H52.9536C49.5518 101.646 46.4117 99.8549 44.7227 96.9334L32.3526 75.7526C30.6636 72.8311 30.6636 69.2499 32.3526 66.3284L44.6989 45.1476C46.3879 42.2261 49.528 40.4356 52.9298 40.4356H77.6224C81.0242 40.4356 84.1643 42.2261 85.8533 45.1476L98.1996 66.3284C99.9362 69.2499 99.9362 72.8311 98.2472 75.7526Z" fill="#FD1669"/>
<rect x="65" y="85" width="81" height="36.1591" rx="5.97541" fill="#222222"/>
<path d="M71.6393 114.194V91.9435H76.3436V110.315H85.8826V114.194H71.6393Z" fill="url(#paint0_linear_5506_2518)"/>
<path d="M99.8445 98.3427C99.7576 97.4663 99.3846 96.7854 98.7255 96.3002C98.0664 95.8149 97.1718 95.5723 96.042 95.5723C95.2742 95.5723 94.626 95.6809 94.0972 95.8982C93.5685 96.1082 93.1629 96.4016 92.8804 96.7782C92.6052 97.1548 92.4676 97.5822 92.4676 98.0602C92.4531 98.4586 92.5364 98.8062 92.7174 99.1032C92.9058 99.4001 93.1629 99.6573 93.4888 99.8745C93.8148 100.085 94.1914 100.269 94.6187 100.429C95.046 100.581 95.5024 100.711 95.9876 100.82L97.9867 101.298C98.9572 101.515 99.8481 101.805 100.659 102.167C101.471 102.529 102.173 102.975 102.767 103.503C103.361 104.032 103.821 104.655 104.147 105.372C104.48 106.089 104.65 106.911 104.657 107.838C104.65 109.2 104.303 110.38 103.614 111.38C102.934 112.372 101.949 113.144 100.659 113.694C99.3773 114.237 97.831 114.509 96.0202 114.509C94.224 114.509 92.6595 114.234 91.3268 113.683C90.0014 113.133 88.9656 112.318 88.2196 111.239C87.4808 110.152 87.0933 108.809 87.0571 107.208H91.6093C91.66 107.954 91.8736 108.577 92.2503 109.077C92.6342 109.569 93.1448 109.942 93.7822 110.196C94.4268 110.442 95.1547 110.565 95.9659 110.565C96.7626 110.565 97.4543 110.449 98.041 110.217C98.6349 109.986 99.0948 109.663 99.4208 109.251C99.7467 108.838 99.9097 108.363 99.9097 107.827C99.9097 107.328 99.7612 106.907 99.4642 106.567C99.1745 106.227 98.7472 105.937 98.1822 105.698C97.6245 105.459 96.9401 105.242 96.1289 105.046L93.7061 104.438C91.8302 103.981 90.349 103.268 89.2626 102.297C88.1761 101.327 87.6365 100.019 87.6438 98.3753C87.6365 97.0281 87.9951 95.8511 88.7194 94.8443C89.4509 93.8376 90.454 93.0517 91.7288 92.4868C93.0035 91.9218 94.4521 91.6393 96.0745 91.6393C97.7259 91.6393 99.1673 91.9218 100.399 92.4868C101.637 93.0517 102.6 93.8376 103.288 94.8443C103.977 95.8511 104.331 97.0172 104.353 98.3427H99.8445Z" fill="url(#paint1_linear_5506_2518)"/>
<path d="M106.598 114.194V91.9435H115.376C117.064 91.9435 118.502 92.2659 119.689 92.9105C120.877 93.5479 121.783 94.4351 122.406 95.5723C123.036 96.7021 123.351 98.0059 123.351 99.4834C123.351 100.961 123.032 102.265 122.395 103.395C121.757 104.525 120.834 105.405 119.624 106.035C118.422 106.665 116.966 106.98 115.257 106.98H109.662V103.21H114.496C115.402 103.21 116.148 103.054 116.734 102.743C117.328 102.424 117.77 101.986 118.06 101.428C118.357 100.863 118.505 100.215 118.505 99.4834C118.505 98.7447 118.357 98.1 118.06 97.5496C117.77 96.9919 117.328 96.5609 116.734 96.2567C116.14 95.9453 115.387 95.7895 114.475 95.7895H111.302V114.194H106.598Z" fill="url(#paint2_linear_5506_2518)"/>
<path d="M138.98 102.265L134.743 102.525C134.671 102.163 134.515 101.837 134.276 101.548C134.037 101.251 133.722 101.015 133.331 100.841C132.947 100.66 132.487 100.57 131.951 100.57C131.234 100.57 130.629 100.722 130.137 101.026C129.644 101.323 129.398 101.721 129.398 102.221C129.398 102.62 129.557 102.956 129.876 103.232C130.195 103.507 130.742 103.728 131.517 103.894L134.537 104.503C136.159 104.836 137.369 105.372 138.166 106.111C138.962 106.849 139.361 107.82 139.361 109.022C139.361 110.116 139.038 111.076 138.394 111.901C137.756 112.727 136.88 113.372 135.765 113.835C134.656 114.292 133.378 114.52 131.929 114.52C129.72 114.52 127.96 114.06 126.649 113.14C125.346 112.213 124.581 110.953 124.357 109.359L128.909 109.12C129.047 109.794 129.38 110.308 129.909 110.663C130.437 111.011 131.115 111.184 131.94 111.184C132.751 111.184 133.403 111.029 133.896 110.717C134.396 110.399 134.649 109.989 134.656 109.49C134.649 109.069 134.472 108.725 134.124 108.457C133.776 108.182 133.24 107.972 132.516 107.827L129.626 107.251C127.997 106.926 126.783 106.361 125.987 105.557C125.197 104.753 124.802 103.728 124.802 102.482C124.802 101.41 125.092 100.487 125.672 99.7116C126.258 98.9366 127.08 98.339 128.138 97.919C129.202 97.4989 130.448 97.2888 131.875 97.2888C133.983 97.2888 135.641 97.7343 136.851 98.6251C138.068 99.516 138.778 100.729 138.98 102.265Z" fill="url(#paint3_linear_5506_2518)"/>
<defs>
<linearGradient id="paint0_linear_5506_2518" x1="69.607" y1="49.2343" x2="156.188" y2="67.7372" gradientUnits="userSpaceOnUse">
<stop stop-color="#1C1C1C"/>
<stop offset="0.515193" stop-color="white"/>
<stop offset="1" stop-color="#303030"/>
</linearGradient>
<linearGradient id="paint1_linear_5506_2518" x1="69.607" y1="49.2343" x2="156.188" y2="67.7372" gradientUnits="userSpaceOnUse">
<stop stop-color="#1C1C1C"/>
<stop offset="0.515193" stop-color="white"/>
<stop offset="1" stop-color="#303030"/>
</linearGradient>
<linearGradient id="paint2_linear_5506_2518" x1="69.607" y1="49.2343" x2="156.188" y2="67.7372" gradientUnits="userSpaceOnUse">
<stop stop-color="#1C1C1C"/>
<stop offset="0.515193" stop-color="white"/>
<stop offset="1" stop-color="#303030"/>
</linearGradient>
<linearGradient id="paint3_linear_5506_2518" x1="69.607" y1="49.2343" x2="156.188" y2="67.7372" gradientUnits="userSpaceOnUse">
<stop stop-color="#1C1C1C"/>
<stop offset="0.515193" stop-color="white"/>
<stop offset="1" stop-color="#303030"/>
</linearGradient>
</defs>
</svg>
